
                  <svg
                    width="24"
                    height="24"
                    viewBox="0 0 24 24"
                    fill="none"
                    xmlns="http://www.w3.org/2000/svg"
                  >
                    <g clipPath="url(#clip0_6_181)">
                      <path
                        d="M24.25 0.875V0H22.5V0.875V1.75H21.625H20.75V3.5H21.625H22.5V4.375V5.25H24.25V4.375V3.5H25.125H26V1.75H25.125H24.25V0.875ZM1.5 6.125V5.25H-0.25V6.125V7H-1.125H-2V8.75H-1.125H-0.25V9.625V10.5H1.5V9.625V8.75H2.375H3.25V7H2.375H1.5V6.125ZM12 1.75C12.1724 1.75 12.343 1.78395 12.5023 1.84991C12.6615 1.91587 12.8062 2.01255 12.9281 2.13442C13.05 2.2563 13.1466 2.40099 13.2126 2.56023C13.2786 2.71947 13.3125 2.89014 13.3125 3.0625C13.3125 3.23486 13.2786 3.40553 13.2126 3.56477C13.1466 3.72401 13.05 3.8687 12.9281 3.99058C12.8062 4.11245 12.6615 4.20913 12.5023 4.27509C12.343 4.34105 12.1724 4.375 12 4.375C11.8276 4.375 11.657 4.34105 11.4977 4.27509C11.3385 4.20913 11.1938 4.11245 11.0719 3.99058C10.95 3.8687 10.8534 3.72401 10.7874 3.56477C10.7214 3.40553 10.6875 3.23486 10.6875 3.0625C10.6875 2.89014 10.7214 2.71947 10.7874 2.56023C10.8534 2.40099 10.95 2.2563 11.0719 2.13442C11.1938 2.01255 11.3385 1.91587 11.4977 1.84991C11.657 1.78395 11.8276 1.75 12 1.75ZM12 6.125C12.8122 6.125 13.5912 5.80234 14.1655 5.22801C14.7398 4.65368 15.0625 3.87473 15.0625 3.0625C15.0625 2.25027 14.7398 1.47132 14.1655 0.896985C13.5912 0.322655 12.8122 0 12 0C11.1878 0 10.4088 0.322655 9.83449 0.896985C9.26016 1.47132 8.9375 2.25027 8.9375 3.0625C8.9375 3.87473 9.26016 4.65368 9.83449 5.22801C10.4088 5.80234 11.1878 6.125 12 6.125ZM20.75 24.5H19.875H4.125H3.25V25.375V27.125V28H5V27.125V26.25H19V27.125V28H20.75V27.125V25.375V24.5ZM6.75 7V8.75H7.625H16.375H17.25V7H16.375H7.625H6.75ZM5 10.5V12.25H5.875H18.125H19V10.5H18.125H5.875H5ZM3.25 14V15.75H4.125H19.875H20.75V14H19.875H4.125H3.25ZM6.75 17.5V19.25H7.625H16.375H17.25V17.5H16.375H7.625H6.75ZM6.75 21V22.75H7.625H16.375H17.25V21H16.375H7.625H6.75Z"
                        fill="#F29E20"
                      ></path>
                    </g>
                    <defs>
                      <clipPath id="clip0_6_181">
                        <rect width="24" height="24" fill="white"></rect>
                      </clipPath>
                    </defs>
                  </svg>
